# Blender v2.78 (sub 0) OBJ File: 'WoodenWedge.blend'
# www.blender.org
mtllib WoodenWedge.mtl
o Cube
v 1.000000 -1.000000 0.074933
v 1.000000 -1.000000 2.074933
v -1.000000 -1.000000 2.074933
v -1.000000 -1.000000 0.074933
v -1.000000 1.000000 2.074933
v -1.000000 1.000000 0.074933
vt 0.0000 0.5000
vt 0.4142 0.5000
vt 0.4142 0.0000
vt 0.0000 0.0000
vt 0.4158 1.0833
vt 0.4158 0.3291
vt -0.0015 0.3291
vt -0.0015 1.0833
vt 0.6156 0.5000
vt 1.0000 0.0000
vt 1.0000 1.0000
vt 0.6172 0.5000
vt 1.0014 1.0000
vt 1.0014 0.0000
vt 0.0000 1.0000
vt 0.4142 1.0000
vn -1.0000 -0.0000 -0.0000
vn 0.7071 0.7071 0.0000
vn 0.0000 0.0000 -1.0000
vn 0.0000 0.0000 1.0000
vn 0.0000 -1.0000 0.0000
usemtl Material
s off
f 4/1/1 3/2/1 5/3/1 6/4/1
f 1/5/2 6/6/2 5/7/2 2/8/2
f 4/9/3 6/10/3 1/11/3
f 3/12/4 2/13/4 5/14/4
f 4/1/5 1/15/5 2/16/5 3/2/5
